Coordinates
version=1
nRows=27
nColumns=12
inDegrees=yes

Units are S.I. units (second, meters, Newtons, ...)
Angles are in degrees

endheader
time	SC_y	SC_z	SC_x	AC_y	AC_z	AC_x	GH_y	GH_z	GH_yy	EL_x	PS_y
       0.0              -37.23          8.922           54.6          35.21         -15.45         -4.392         -124.9          7.616          146.3          22.49          5.499
   0.03837              -37.23          8.921          54.59          35.22         -15.45         -4.393         -124.9           7.62          146.3           22.5          5.511
   0.07674              -37.24           8.92          54.59          35.22         -15.45         -4.394         -124.8          7.625          146.2           22.5          5.524
    0.1151              -37.24          8.919          54.59          35.23         -15.44         -4.395         -124.8          7.631          146.2          22.51          5.537
    0.1535              -37.24          8.918          54.58          35.23         -15.44         -4.396         -124.8          7.636          146.1          22.52          5.551
    0.1919              -37.24          8.917          54.58          35.24         -15.44         -4.398         -124.8          7.642          146.1          22.53          5.566
    0.2302              -37.25          8.916          54.57          35.25         -15.44         -4.399         -124.7          7.649          146.0          22.54          5.582
    0.2686              -37.25          8.915          54.56          35.25         -15.44           -4.4         -124.7          7.656          146.0          22.56          5.599
     0.307              -37.26          8.913          54.56          35.26         -15.44         -4.402         -124.7          7.663          145.9          22.57          5.618
    0.3453              -37.26          8.912          54.55          35.27         -15.43         -4.404         -124.7          7.671          145.8          22.58          5.637
    0.3837              -37.26          8.911          54.54          35.28         -15.43         -4.406         -124.6          7.679          145.7           22.6          5.659
    0.4221              -37.27          8.909          54.54          35.29         -15.43         -4.408         -124.6          7.688          145.7          22.61          5.681
    0.4605              -37.28          8.907          54.53           35.3         -15.43          -4.41         -124.5          7.698          145.6          22.63          5.706
    0.4988              -37.28          8.905          54.52          35.31         -15.42         -4.412         -124.5          7.709          145.5          22.65          5.732
    0.5372              -37.29          8.903          54.51          35.32         -15.42         -4.414         -124.5           7.72          145.4          22.67          5.761
    0.5756              -37.29          8.901           54.5          35.34         -15.42         -4.417         -124.4          7.733          145.3          22.69          5.792
    0.6139               -37.3          8.899          54.49          35.35         -15.41          -4.42         -124.4          7.746          145.1          22.71          5.826
    0.6523              -37.31          8.896          54.48          35.37         -15.41         -4.423         -124.3          7.761          145.0          22.74          5.863
    0.6907              -37.32          8.893          54.46          35.38          -15.4         -4.427         -124.2          7.777          144.9          22.76          5.903
    0.7291              -37.33           8.89          54.45           35.4          -15.4          -4.43         -124.2          7.794          144.7          22.79          5.948
    0.7674              -37.34          8.887          54.43          35.42         -15.39         -4.434         -124.1          7.814          144.5          22.83          5.996
    0.8058              -37.35          8.883          54.41          35.45         -15.39         -4.439         -124.0          7.835          144.3          22.86          6.049
    0.8442              -37.36          8.879          54.39          35.47         -15.38         -4.444         -123.9          7.859          144.1           22.9          6.108
    0.8825              -37.38          8.875          54.37           35.5         -15.37          -4.45         -123.8          7.885          143.9          22.95          6.173
    0.9209              -37.39           8.87          54.35          35.53         -15.37         -4.456         -123.7          7.913          143.6           23.0          6.246
    0.9593              -37.41          8.864          54.32          35.57         -15.36         -4.463         -123.6          7.946          143.4          23.05          6.327
    0.9977              -37.43          8.858          54.29           35.6         -15.35         -4.471         -123.4          7.982          143.0          23.11          6.417
